<?xml version="1.0" standalone="no"?>
<!DOCTYPE svg PUBLIC "-//W3C//DTD SVG 20010904//EN"
 "http://www.w3.org/TR/2001/REC-SVG-20010904/DTD/svg10.dtd">
<svg version="1.0" xmlns="http://www.w3.org/2000/svg"
 width="351.000000pt" height="392.000000pt" viewBox="0 0 351.000000 392.000000"
 preserveAspectRatio="xMidYMid meet">

<g transform="translate(0.000000,392.000000) scale(0.100000,-0.100000)"
fill="#000000" stroke="none">
<path d="M0 1960 l0 -1960 1755 0 1755 0 0 1960 0 1960 -1755 0 -1755 0 0
-1960z m1190 1531 c0 -17 5 -19 33 -15 31 5 32 4 56 -58 13 -35 34 -85 47
-113 12 -27 37 -86 54 -130 17 -44 40 -98 50 -120 10 -22 39 -92 65 -155 26
-63 53 -128 60 -145 34 -80 48 -112 61 -139 8 -16 14 -33 14 -38 0 -4 10 -30
21 -56 12 -26 27 -61 35 -78 18 -40 103 -247 165 -399 27 -66 53 -128 59 -137
20 -35 12 -55 -30 -72 -68 -27 -71 -25 -114 82 -36 88 -48 117 -91 217 -8 17
-23 55 -35 85 -21 52 -30 74 -66 155 -8 19 -35 86 -60 148 -25 61 -54 130 -64
152 -10 22 -34 78 -53 125 -87 212 -148 356 -157 372 -5 10 -10 24 -10 31 0 8
-9 22 -20 32 -20 18 -20 17 -21 -31 -1 -56 -5 -102 -14 -157 -3 -22 -8 -87
-11 -145 -3 -59 -7 -118 -10 -132 -2 -14 -7 -99 -9 -190 -3 -91 -8 -185 -10
-210 -3 -25 -7 -119 -10 -210 -4 -158 -14 -462 -20 -675 -2 -55 -4 -313 -4
-572 l-1 -473 -56 0 -57 0 7 412 c3 227 8 575 11 773 3 198 8 380 10 405 2 25
7 135 10 245 3 110 8 220 10 245 3 25 7 106 10 180 3 74 8 153 11 175 3 22 7
74 10 115 2 41 7 93 10 115 3 22 9 78 14 125 16 153 34 222 68 263 20 22 32
22 32 -2z m1396 -81 c2 -31 -2 -60 -10 -73 -7 -12 -14 -40 -15 -61 -1 -21 -5
-46 -10 -55 -4 -9 -9 -52 -10 -96 -2 -44 -5 -83 -7 -87 -3 -5 -7 -52 -10 -105
-3 -54 -7 -120 -9 -148 -3 -27 -7 -108 -10 -180 -3 -71 -8 -161 -10 -200 -5
-80 -12 -268 -20 -535 -3 -102 -7 -210 -9 -240 -2 -30 -4 -315 -5 -632 l-1
-578 -26 0 -27 0 7 388 c3 213 8 542 11 732 3 190 7 388 10 440 3 52 7 176 10
275 3 99 8 209 10 245 3 36 7 110 10 165 10 177 31 466 39 510 2 17 7 54 11
83 5 48 4 52 -15 52 -12 0 -40 -9 -62 -20 -23 -11 -48 -20 -55 -20 -7 0 -21
-4 -31 -9 -18 -9 -62 -28 -99 -42 -13 -5 -34 -13 -48 -19 -14 -5 -35 -14 -47
-19 -32 -12 -69 -27 -98 -39 -14 -6 -101 -40 -195 -77 -264 -104 -263 -104
-287 -116 -24 -12 -58 -11 -58 1 0 6 8 10 18 10 10 0 22 4 27 9 6 5 30 16 55
25 60 20 191 73 212 86 10 5 23 10 28 10 6 0 30 9 52 20 23 11 45 20 50 20 5
0 27 8 51 19 23 10 130 53 237 96 267 105 280 112 295 158 7 20 10 37 8 37 -3
0 0 7 7 15 18 21 22 14 26 -45z"/>
</g>
</svg>
